<?xml version="1.0" encoding="UTF-8" standalone="no"?>

<!-- Hello, intrepid web explorer. 🙂 -->
<!-- I made this SVG using Affinity Designer — not by hand! -->
<!-- I made it by tracing a photo of mountains near me in Utah. -->

<!DOCTYPE svg PUBLIC "-//W3C//DTD SVG 1.1//EN" "http://www.w3.org/Graphics/SVG/1.1/DTD/svg11.dtd">
<svg width="100%" height="100%" viewBox="0 0 1920 264" version="1.1" xmlns="http://www.w3.org/2000/svg" xmlns:xlink="http://www.w3.org/1999/xlink" xml:space="preserve" xmlns:serif="http://www.serif.com/" style="fill-rule:evenodd;clip-rule:evenodd;stroke-linejoin:round;stroke-miterlimit:2;">
    <g transform="matrix(1,0,0,1,0,-816)">
        <path id="Trace" d="M1.656,930.779L139.998,894.224L159.742,901.987L206.418,864.504L213.947,864.79L261.92,822.14L269.328,825.335L280.072,825.118L286.385,818.175L295.891,819.462L311.308,826.88L319.78,836.716L337.102,838.911L347.895,831.009L357.585,821.199L367.76,820.606L381.508,837.874L388.294,840.55L407.214,860.693L413.492,862.78L427.822,843.584L440.308,844.439L451.042,850.783L466.501,846.392L486.589,850.484L504.201,859.715L511.332,858.6L522.898,849.506L534.436,848.523L554.65,860.309L579.107,866.819L601.056,876.838L616.562,885.682L625.5,886.574L643.591,876.263L651.611,876.465L660.797,881.565L681.282,896.819L699.043,911.981L710.393,916.336L721.402,916.607L736.269,916.341L744.498,911.843L751.655,912.06L768.206,920.032L782.086,927.922L797.278,928.193L821.328,931.194L842,918.944L851.914,915.638L861.93,915.738L873.866,920.905L887.375,931.768L896.165,937.199L912.349,934.939L925.544,930.638L933.495,926.492L941.57,926.696L947.699,931.036L954.618,933.742L974.235,933.537L982.75,933.537L990.923,937.612L997.312,942.245L1007.43,944.221L1022.56,954.232L1036.6,959.108L1051.56,964.764L1072.73,976.196L1088.11,987.525L1095.6,993.865L1108.01,991.658L1122.9,992.485L1131.38,993.507L1145.52,996.952L1155.56,1003.32L1163.38,1003.32L1179.98,1001.02L1190.44,1004.03L1210.24,1002.04L1223.78,1004.55L1241.42,1000.84L1269.48,999.742L1288.2,991.653L1302.82,990.446L1314.36,992.405L1338.85,987.563L1362.13,987.558L1378.5,985.213L1395.26,989.312L1410.58,989.621L1431.3,977.768L1445.71,976.944L1461.98,965.694L1477.39,964.429L1502.19,951.901L1524.69,936.81L1540.91,935.394L1552.03,929.893L1578.87,926.073L1607.58,926.969L1627.23,928.421L1643.45,920.385L1659.5,914.084L1677.02,899.043L1685.67,896.471L1697.45,903.829L1710.04,905.951L1722.8,903.615L1738.94,891.543L1757.09,882.794L1775.75,877.879L1792.46,877.403L1811.59,877.933L1826.74,883.689L1838.5,889.956L1853.92,895.324L1865.34,898.629L1879.35,899.36L1894.37,899.435L1908.33,904.335L1917.26,909.838L1929.89,916.203L1929.89,1090.54L-13.28,1090.54L-13.28,931.078L1.656,930.779Z" style="fill:url(#_Linear1);"/>
    </g>
    <defs>
        <linearGradient id="_Linear1" x1="0" y1="0" x2="1" y2="0" gradientUnits="userSpaceOnUse" gradientTransform="matrix(-1.37187e-13,-358.324,358.324,-1.37187e-13,868.958,1143.41)"><stop offset="0" style="stop-color:rgb(0,14,84);stop-opacity:1"/><stop offset="1" style="stop-color:rgb(171,58,48);stop-opacity:1"/></linearGradient>
    </defs>
</svg>
